<svg xmlns="http://www.w3.org/2000/svg" width="250" height="250" viewBox="0 0 250 250" fill="none"><circle cx="125" cy="125" r="125" fill="#264653"></circle><path d="M143.123 103.484H163.617C163.321 85.4504 148.506 73 125.988 73C103.815 73 87.5679 85.2527 87.6667 103.632C87.6173 118.552 98.1358 127.1 115.222 131.2L126.235 133.967C137.247 136.635 143.37 139.797 143.42 146.615C143.37 154.026 136.358 159.066 125.494 159.066C114.383 159.066 106.383 153.927 105.691 143.799H85C85.5432 165.686 101.198 177 125.741 177C150.432 177 164.951 165.192 165 146.665C164.951 129.817 152.259 120.875 134.679 116.922L125.593 114.748C116.802 112.723 109.444 109.462 109.593 102.199C109.593 95.6774 115.37 90.885 125.84 90.885C136.062 90.885 142.333 95.5292 143.123 103.484Z" fill="#F5F5F5"></path></svg>